<svg width="20" height="20" viewBox="0 0 20 20" fill="none" xmlns="http://www.w3.org/2000/svg">
<path d="M11.3426 12.4216V5.23285M11.3426 12.4216L16.7101 15.555C16.7903 15.6019 16.8811 15.6265 16.9735 15.6262C17.0659 15.626 17.1567 15.601 17.2367 15.5536C17.3166 15.5063 17.383 15.4384 17.4293 15.3566C17.4755 15.2749 17.4998 15.1822 17.5 15.0878V2.56671C17.5 2.47223 17.4757 2.37939 17.4296 2.29751C17.3834 2.21562 17.317 2.14756 17.237 2.10015C17.157 2.05273 17.0662 2.02763 16.9738 2.02735C16.8813 2.02706 16.7903 2.05162 16.7101 2.09854L11.3426 5.23285M11.3426 12.4216H5.18514M11.3426 5.23285H5.18514C4.25198 5.23285 3.35703 5.61154 2.69718 6.28562C2.03733 6.9597 1.66663 7.87394 1.66663 8.82723C1.66663 9.78052 2.03733 10.6948 2.69718 11.3688C3.35703 12.0429 4.25198 12.4216 5.18514 12.4216M5.18514 12.4216L5.85102 17.1842C5.9205 17.6475 6.16618 18.0642 6.53466 18.3435C6.90314 18.6229 7.36466 18.7424 7.81892 18.6761C8.27318 18.6098 8.68347 18.3631 8.96065 17.9895C9.23782 17.6159 9.35947 17.1457 9.29917 16.681L8.70366 12.4216H5.18514Z" stroke="#474747" stroke-width="0.833333"/>
</svg>
